<svg height="512pt" viewBox="0 -54 512 511" width="512pt" xmlns="http://www.w3.org/2000/svg">
	<defs>
    <style>
      .cls-1 {
        fill: #ffffff;
      }
    </style>
  	</defs>
	<path class="cls-1" d="m512 227.785156c0-26.3125-21.40625-47.71875-47.71875-47.71875h-22.785156l-66.425782-119.871094h-38.070312v-14.445312c0-24.949219-20.300781-45.25-45.25-45.25s-45.25 20.300781-45.25 45.25v14.441406h-246.5v292.113282h53.882812c3.285157 29.167968 28.089844 51.914062 58.117188 51.914062s54.832031-22.746094 58.117188-51.914062h173.570312c3.289062 29.167968 28.089844 51.914062 58.121094 51.914062 30.027344 0 54.832031-22.746094 58.117187-51.914062h52.074219zm-104.800781-47.71875h-102.164063v-89.875h52.363282zm-130.699219-134.316406c0-8.410156 6.839844-15.25 15.25-15.25s15.25 6.84375 15.25 15.25v14.441406h-30.5zm-246.5 44.445312h245.035156v232.113282h-109.4375c-9.050781-20.636719-29.664062-35.089844-53.597656-35.089844s-44.546875 14.457031-53.597656 35.089844h-28.402344zm82 284.023438c-15.714844 0-28.5-12.785156-28.5-28.5s12.785156-28.5 28.5-28.5 28.5 12.785156 28.5 28.5-12.785156 28.5-28.5 28.5zm289.808594 0c-15.714844 0-28.5-12.785156-28.5-28.5s12.785156-28.5 28.5-28.5 28.5 12.785156 28.5 28.5-12.785156 28.5-28.5 28.5zm80.191406-51.910156h-26.597656c-9.046875-20.636719-29.660156-35.089844-53.59375-35.089844-23.9375 0-44.546875 14.457031-53.597656 35.089844h-43.175782v-112.242188h159.246094c9.769531 0 17.71875 7.949219 17.71875 17.714844zm0 0"/><path class="cls-1" d="m136.167969 250.394531h30v-34.25h34.25v-30h-34.25v-34.25h-30v34.25h-34.25v30h34.25zm0 0"/></svg>