<?xml version="1.0" encoding="iso-8859-1"?>
<!-- Generator: Adobe Illustrator 16.0.0, SVG Export Plug-In . SVG Version: 6.00 Build 0)  -->
<!DOCTYPE svg PUBLIC "-//W3C//DTD SVG 1.1//EN" "http://www.w3.org/Graphics/SVG/1.1/DTD/svg11.dtd">
<svg xmlns="http://www.w3.org/2000/svg" xmlns:xlink="http://www.w3.org/1999/xlink" version="1.1" x="0px" y="0px" width="512" height="512" viewBox="0 0 57.696 57.695" style="enable-background:new 0 0 57.696 57.695;" xml:space="preserve">

	<defs>
    <style>
      .cls-1 {
        fill: #ffffff;
      }
    </style>
  	</defs>

			<path class="cls-1" d="M10.902,19.22c-0.32,0-0.645-0.084-0.94-0.259c-0.877-0.521-1.166-1.653-0.646-2.53     c3.455-5.822,3.466-8.958,0.043-11.568C8.548,4.244,8.392,3.086,9.011,2.275c0.618-0.811,1.775-0.968,2.587-0.349     c7.309,5.574,2.813,13.152,0.894,16.389C12.146,18.896,11.532,19.22,10.902,19.22z"/>

			<path class="cls-1" d="M21.243,11.978c-0.119,0-0.24-0.012-0.361-0.036c-1-0.198-1.65-1.17-1.452-2.17     c0.332-1.67-0.584-4.522-2.936-6.519c-0.777-0.66-0.873-1.825-0.212-2.603c0.661-0.775,1.825-0.872,2.602-0.212     c3.105,2.637,4.819,6.77,4.168,10.052C22.877,11.369,22.106,11.978,21.243,11.978z"/>

			<path class="cls-1" d="M40.215,57.695c-1.058,0-2.14-0.04-3.238-0.121C26.583,56.808,17.578,52.592,12.27,46.01     c-4.041-5.012-5.89-10.719-5.494-16.962c0.064-1.019,0.959-1.766,1.959-1.727c1.018,0.064,1.79,0.941,1.726,1.959     c-0.34,5.368,1.192,10.082,4.684,14.411c4.669,5.791,12.727,9.509,22.105,10.2c6.812,0.506,13.188-0.798,15.91-3.241     c0.779-1.268,1.705-9.357-0.745-18.52c-1.651-6.173-5.294-14.335-13.272-18.167c-0.919-0.441-1.306-1.544-0.864-2.463     c0.44-0.921,1.543-1.309,2.463-0.865c11.707,5.623,15.293,18.762,16.389,26.094c0.974,6.513,0.811,14.538-1.408,16.582     C52.7,56.097,46.929,57.695,40.215,57.695z"/>

			<path class="cls-1" d="M24.471,25.663c-0.038,0-0.077-0.001-0.115-0.003c-1.018-0.063-1.792-0.938-1.729-1.956     c0.733-11.948,7.71-18.214,19.62-17.621C43.265,6.133,44.05,6.999,44,8.018c-0.05,1.018-0.912,1.816-1.935,1.753     c-9.841-0.487-15.147,4.28-15.754,14.16C26.251,24.909,25.438,25.663,24.471,25.663z"/>

			<path class="cls-1" d="M19.206,17.403c-0.105,0-0.213-0.01-0.32-0.028c-1.004-0.176-1.676-1.133-1.5-2.137     C18.711,7.666,25.639,0,36.313,0c1.02,0,1.847,0.826,1.847,1.846s-0.827,1.846-1.847,1.846c-8.638,0-14.231,6.129-15.292,12.184     C20.865,16.771,20.085,17.403,19.206,17.403z"/>

			<path class="cls-1" d="M17.945,22.964c-0.44,0-0.881-0.156-1.234-0.473C12.72,18.902,5.982,17.715,2.43,18.902     c-0.965,0.323-2.012-0.201-2.334-1.169c-0.322-0.967,0.201-2.013,1.168-2.335c4.59-1.527,12.747-0.302,17.916,4.347     c0.758,0.683,0.82,1.85,0.138,2.607C18.954,22.758,18.45,22.964,17.945,22.964z"/>

			<path class="cls-1" d="M12.407,27.768c-0.402,0-0.807-0.13-1.146-0.399c-2.25-1.785-6.253-1.903-8.878-1.105     c-0.978,0.293-2.007-0.255-2.303-1.23c-0.296-0.976,0.255-2.007,1.23-2.303c3.499-1.062,8.823-0.968,12.245,1.746     c0.799,0.634,0.933,1.795,0.299,2.594C13.49,27.528,12.951,27.768,12.407,27.768z"/>

			<path class="cls-1" d="M17.721,57.112c-0.042,0-0.083-0.001-0.125-0.004c-1.013-0.068-1.781-0.935-1.72-1.948     c0.008-0.135,0.227-3.333,2.447-6.084c0.641-0.792,1.804-0.916,2.596-0.276c0.793,0.641,0.917,1.803,0.277,2.597     c-1.459,1.807-1.634,3.978-1.636,3.999C19.49,56.366,18.68,57.112,17.721,57.112z"/>

			<path class="cls-1" d="M8.783,56.275c-0.9-1.393,0.848-6.409,1.398-7.633c0.418-0.93,1.513-1.342,2.441-0.926     c0.93,0.418,1.345,1.511,0.926,2.441c-1.227,2.728-1.37,5.178-1.371,5.202l-1.834-0.098l-0.01,0.01L8.783,56.275z"/>

			<path class="cls-1" d="M38.445,44.246c-0.224,0-0.451-0.041-0.673-0.128c-0.949-0.371-1.418-1.442-1.046-2.392     c1.777-4.543,1.659-9.246-0.333-13.242c-1.519-3.047-4.005-5.372-6.488-6.067c-0.982-0.274-1.555-1.293-1.28-2.275     c0.275-0.981,1.294-1.556,2.276-1.279c3.509,0.981,6.797,3.963,8.797,7.975c2.464,4.942,2.629,10.708,0.467,16.235     C39.88,43.801,39.183,44.246,38.445,44.246z"/>

			<path class="cls-1" d="M46.284,32.206c-0.723,0-1.409-0.428-1.705-1.137c-1.253-3.005-4.024-2.773-6.131-2.048     c-0.964,0.335-2.015-0.181-2.347-1.144c-0.332-0.964,0.18-2.015,1.145-2.347c4.868-1.677,8.985-0.099,10.741,4.118     c0.393,0.941-0.053,2.021-0.994,2.414C46.762,32.16,46.521,32.206,46.284,32.206z"/>

</svg>