<svg enable-background="new 0 0 32 32" height="512" viewBox="0 0 32 32" width="512" xmlns="http://www.w3.org/2000/svg">
	<defs>
    <style>
      .cls-1 {
        fill: #ffffff;
      }
    </style>
  	</defs>

	<path class="cls-1" d="m24.8 9.3c-1.8 0-3.2 1.4-3.2 3.2 0 1.4.9 2.6 2.2 3v6.8c0 3.2-2.6 5.8-5.8 5.8s-5.8-2.6-5.8-5.8v-3.4c3.5-.5 6.3-3.7 6.3-7.6v-5.5c0-1.5-1.2-2.7-2.7-2.7h-.5c0-.6-.4-1-1-1s-1 .4-1 1v2.1c0 .6.4 1 1 1s1-.5 1-1h.5c.4 0 .7.3.7.7v5.4c0 3.1-2.4 5.7-5.3 5.7s-5.2-2.7-5.2-5.8v-5.4c0-.4.3-.8.7-.8h.4c0 .6.4 1 1 1s1-.4 1-1v-2c0-.6-.4-1-1-1s-1 .4-1 1h-.4c-1.5 0-2.7 1.3-2.7 2.8v5.4c0 3.9 2.7 7.1 6.3 7.6v3.4c0 4.3 3.5 7.8 7.8 7.8s7.8-3.5 7.8-7.8v-6.8c1.3-.4 2.2-1.6 2.2-3-.1-1.7-1.5-3.1-3.3-3.1z"/></svg>